<?xml version="1.0" encoding="utf-8"?>
<!-- Generator: Adobe Illustrator 16.0.0, SVG Export Plug-In . SVG Version: 6.00 Build 0)  -->
<!DOCTYPE svg PUBLIC "-//W3C//DTD SVG 1.1//EN" "http://www.w3.org/Graphics/SVG/1.1/DTD/svg11.dtd">
<svg version="1.1" id="Layer_1" xmlns="http://www.w3.org/2000/svg" xmlns:xlink="http://www.w3.org/1999/xlink" x="0px" y="0px"
	 width="410.985px" height="124.338px" viewBox="0 0 410.985 124.338" enable-background="new 0 0 410.985 124.338"
	 xml:space="preserve">
<g>
	<path fill="#231916" d="M16.981,15.624c3.063,5.107,11.438,10.272,28.088,12.529C39.767,13.554,32.771,6.938,26.77,5.109
		c-4.03-1.228-7.521-0.206-9.465,1.961C15.445,9.143,15.017,12.347,16.981,15.624 M42.65,32.44
		c-17.099-2.636-26.054-8.55-29.601-14.465C9.928,12.77,10.751,7.521,13.894,4.019c3.057-3.407,8.319-5.083,14.205-3.29
		c6.813,2.077,14.579,8.944,20.406,23.568C54.332,9.672,62.099,2.805,68.912,0.729c5.886-1.793,11.148-0.117,14.206,3.29
		c3.142,3.502,3.965,8.751,0.844,13.957C80.45,23.831,71.639,29.685,54.875,32.36C50.179,33.109,47.38,33.17,42.65,32.44z
		 M51.941,28.153c16.649-2.256,25.025-7.421,28.087-12.529c1.964-3.277,1.536-6.481-0.323-8.553
		c-1.944-2.167-5.435-3.189-9.465-1.961C64.24,6.938,57.244,13.554,51.941,28.153z"/>
	<path fill-rule="evenodd" clip-rule="evenodd" fill="#7E22CE" d="M92.031,41.522H15.795c-0.9,0-1.73,0.331-2.337,0.88
		c-0.571,0.517-0.952,1.236-1.003,2.055l-4.613,73.621c-0.055,0.884,0.04,1.698,0.292,2.429c0.242,0.701,0.646,1.365,1.217,1.984
		c0.575,0.622,1.213,1.087,1.907,1.391c0.691,0.303,1.469,0.456,2.326,0.456h80.658c0.856,0,1.636-0.153,2.326-0.456
		c0.693-0.303,1.332-0.768,1.906-1.391c0.572-0.619,0.976-1.284,1.217-1.984c0.253-0.732,0.348-1.546,0.292-2.429l-4.613-73.621
		c-0.051-0.818-0.431-1.537-1.003-2.055C93.761,41.854,92.931,41.522,92.031,41.522"/>
	<path fill-rule="evenodd" clip-rule="evenodd" fill="#FFFFFF" d="M67.841,49.966c2.12,0,3.839,1.719,3.839,3.839
		c0,2.12-1.719,3.839-3.839,3.839c-2.121,0-3.839-1.719-3.839-3.839C64.001,51.685,65.72,49.966,67.841,49.966"/>
	<path fill="#231916" d="M85.231,38.483H12.218c-0.862,0-1.657,0.317-2.238,0.843c-0.547,0.495-0.912,1.184-0.96,1.968
		l-4.418,70.508c-0.053,0.847,0.038,1.626,0.28,2.327c0.232,0.671,0.618,1.307,1.166,1.9c0.55,0.596,1.162,1.042,1.826,1.332
		c0.662,0.29,1.407,0.437,2.228,0.437H87.35c0.82,0,1.566-0.147,2.228-0.437c0.664-0.291,1.275-0.736,1.826-1.332
		c0.548-0.593,0.934-1.229,1.166-1.9c0.242-0.701,0.333-1.48,0.28-2.327l-4.418-70.508c-0.049-0.784-0.413-1.472-0.96-1.968
		C86.888,38.8,86.094,38.483,85.231,38.483 M12.218,33.887h73.013c2.011,0,3.896,0.769,5.309,2.046
		c1.408,1.273,2.341,3.047,2.468,5.074l4.419,70.509c0.089,1.432-0.083,2.806-0.532,4.104c-0.444,1.288-1.146,2.466-2.117,3.517
		c-0.983,1.065-2.112,1.876-3.37,2.427c-1.26,0.552-2.619,0.831-4.059,0.831H10.101c-1.439,0-2.798-0.279-4.059-0.831
		c-1.258-0.551-2.387-1.363-3.37-2.428c-0.971-1.051-1.673-2.229-2.118-3.516c-0.448-1.298-0.621-2.671-0.532-4.104l4.418-70.509
		c0.127-2.026,1.062-3.801,2.469-5.074C8.322,34.655,10.208,33.887,12.218,33.887z"/>
	<path fill-rule="evenodd" clip-rule="evenodd" fill="#231916" d="M66.967,50.448c2.12,0,3.839,1.719,3.839,3.839
		c0,2.121-1.719,3.839-3.839,3.839c-2.121,0-3.839-1.719-3.839-3.839C63.127,52.167,64.846,50.448,66.967,50.448"/>
	<path fill-rule="evenodd" clip-rule="evenodd" fill="#FFFFFF" d="M31.411,49.952c2.121,0,3.839,1.719,3.839,3.839
		c0,2.121-1.719,3.839-3.839,3.839s-3.839-1.719-3.839-3.839C27.571,51.67,29.29,49.952,31.411,49.952"/>
	<path fill-rule="evenodd" clip-rule="evenodd" fill="#231916" d="M30.483,50.448c2.12,0,3.839,1.719,3.839,3.839
		c0,2.121-1.719,3.839-3.839,3.839s-3.839-1.719-3.839-3.839C26.644,52.167,28.363,50.448,30.483,50.448"/>
	<path fill="#231916" d="M64.668,54.287v9.094c0,4.382-1.794,8.368-4.685,11.259c-2.891,2.89-6.876,4.685-11.258,4.685
		s-8.368-1.794-11.258-4.685c-2.891-2.891-4.686-6.876-4.686-11.259v-9.094h-4.596v9.094c0,5.651,2.311,10.787,6.032,14.508
		c3.722,3.721,8.857,6.032,14.508,6.032s10.786-2.311,14.508-6.032c3.722-3.722,6.032-8.858,6.032-14.508v-9.094H64.668z"/>
</g>
<g>
	<path fill-rule="evenodd" clip-rule="evenodd" fill="#7E22CE" d="M126.106,122.338V42.496h51.663v14.089h-35.46v18.669h28.415
		V89.11H142.31v19.139h35.46v14.089H126.106z"/>
	<path fill-rule="evenodd" clip-rule="evenodd" fill="#7E22CE" d="M236.593,122.338h-45.44V42.496h16.203v65.518h29.237V122.338z"/>
	<path fill-rule="evenodd" clip-rule="evenodd" fill="#7E22CE" d="M262.773,122.338H246.57V42.496h16.203v35.107l10.803-1.174
		l13.15-33.933h18.435l-17.377,40.039l17.847,39.804h-18.668l-13.386-31.82l-10.803,1.175V122.338z"/>
	<path fill-rule="evenodd" clip-rule="evenodd" fill="#7E22CE" d="M309.504,122.338l17.964-79.842h30.763l17.964,79.842h-16.203
		l-3.17-14.442h-27.944l-3.171,14.442H309.504z M340.031,55.882l-8.102,37.925h21.839l-8.101-37.925H340.031z"/>
</g>
<g>
	<path fill="none" stroke="#000000" stroke-width="1.9569" stroke-linecap="round" stroke-linejoin="bevel" d="M121.865,118.01
		V38.168h51.663v14.089h-35.459v18.669h28.414v13.855h-28.414v19.139h35.459v14.09H121.865z"/>
	<path fill="none" stroke="#000000" stroke-width="1.9569" stroke-linecap="round" stroke-linejoin="bevel" d="M232.351,118.01
		h-45.44V38.168h16.203v65.518h29.237V118.01z"/>
	<path fill="none" stroke="#000000" stroke-width="1.9569" stroke-linecap="round" stroke-linejoin="bevel" d="M258.532,118.01
		h-16.203V38.168h16.203v35.107l10.802-1.174l13.151-33.933h18.434l-17.377,40.038l17.847,39.804H282.72l-13.385-31.82
		l-10.802,1.175V118.01z"/>
	<path fill="none" stroke="#000000" stroke-width="1.9569" stroke-linecap="round" stroke-linejoin="bevel" d="M305.262,118.01
		l17.965-79.842h30.763l17.965,79.842h-16.203l-3.17-14.442h-27.945l-3.169,14.442H305.262z M335.791,51.553l-8.102,37.925h21.839
		l-8.101-37.925H335.791z"/>
</g>
</svg>
