<?xml version="1.0" encoding="utf-8"?>
<!-- Generator: Adobe Illustrator 16.0.0, SVG Export Plug-In . SVG Version: 6.00 Build 0)  -->
<!DOCTYPE svg PUBLIC "-//W3C//DTD SVG 1.1//EN" "http://www.w3.org/Graphics/SVG/1.1/DTD/svg11.dtd">
<svg version="1.1" id="Layer_1" xmlns="http://www.w3.org/2000/svg" xmlns:xlink="http://www.w3.org/1999/xlink" x="0px" y="0px"
	 width="300px" height="398.672px" viewBox="0 0 300 398.672" enable-background="new 0 0 300 398.672" xml:space="preserve">
<g opacity="0.8">
	<ellipse opacity="0.2" fill="#231F20" cx="150" cy="382.206" rx="150" ry="16.467"/>
	
		<path fill="none" stroke="#414042" stroke-width="8.5731" stroke-linecap="round" stroke-linejoin="round" stroke-miterlimit="10" d="
		M101.951,146.554V65.873c0-34.013,27.573-61.586,61.586-61.586c34.013,0,61.586,27.573,61.586,61.586v80.681"/>
	<g>
		<path fill="#4C3D5C" d="M267.193,104.473H59.88L40.991,366.456c0,9.128,7.4,16.529,16.529,16.529h212.033
			c9.129,0,16.529-7.401,16.529-16.529L267.193,104.473z"/>
		<polygon opacity="0.15" fill="#231F20" points="261.641,369.375 273.109,356.544 283.658,369.375 277.032,382.206 
			251.216,382.206 		"/>
		<path opacity="0.2" fill="#231F20" d="M267.193,104.473H59.88L40.991,366.456c0,9.128,7.4,16.529,16.529,16.529h212.033
			c9.129,0,16.529-7.401,16.529-16.529L267.193,104.473z"/>
		<path opacity="0.1" fill="#231F20" d="M254.994,105.159H59.88L40.991,367.143c0,9.128,7.4,16.529,16.529,16.529l190.967-0.688
			l13.153-13.61l11.469-12.831L254.994,105.159z"/>
		
			<path fill="none" stroke="#414042" stroke-width="6.1917" stroke-linecap="round" stroke-linejoin="round" stroke-miterlimit="10" d="
			M267.193,104.473H59.88L40.991,366.456c0,9.128,7.4,16.529,16.529,16.529h212.033c9.129,0,16.529-7.401,16.529-16.529
			L267.193,104.473z"/>
	</g>
	<g>
		<path fill="#C5A8DD" d="M240.306,104.473H32.993l-18.89,261.983c0,9.128,7.401,16.529,16.529,16.529h212.033
			c9.129,0,16.53-7.401,16.53-16.529L240.306,104.473z"/>
		<path fill="#775F8F" d="M240.306,104.473H43.904L25.013,366.456c0,9.128,7.401,16.529,16.529,16.529h201.122
			c9.129,0,16.53-7.401,16.53-16.529L240.306,104.473z"/>
		<path opacity="0.1" fill="#231F20" d="M206.045,104.473c0,0,62.786,278.007-143.637,278.512l177.384,0.688
			c0,0,19.403-0.142,19.403-17.606l-19.079-261.593H206.045z"/>
		
			<path fill="none" stroke="#414042" stroke-width="6.1917" stroke-linecap="round" stroke-linejoin="round" stroke-miterlimit="10" d="
			M240.306,104.473H32.993l-18.89,261.983c0,9.128,7.401,16.529,16.529,16.529h212.033c9.129,0,16.53-7.401,16.53-16.529
			L240.306,104.473z"/>
	</g>
	<g>
		<g>
			<circle fill="none" stroke="#8C8A8F" stroke-width="7.1443" stroke-miterlimit="10" cx="75.063" cy="146.554" r="6.424"/>
			<circle fill="none" stroke="#8C8A8F" stroke-width="7.1443" stroke-miterlimit="10" cx="198.234" cy="146.554" r="6.424"/>
		</g>
		
			<path fill="none" stroke="#414042" stroke-width="8.5731" stroke-linecap="round" stroke-linejoin="round" stroke-miterlimit="10" d="
			M75.062,146.554V65.873c0-34.013,27.573-61.586,61.587-61.586c34.013,0,61.585,27.573,61.585,61.586v80.681"/>
	</g>
</g>
<g opacity="0.8">
	<path fill="#FFFFFF" d="M84.147,305.738c-0.004-0.151-0.004-0.151-0.009-0.301c-0.082-2.862-0.167-5.874-0.249-8.736
		c-0.004-0.15-0.004-0.15-0.009-0.301c-0.004-0.15-0.008-0.301,0.142-0.306c0.297-0.159,0.443-0.314,0.74-0.473
		c10.505-6.931,25.438-11.879,37.766-12.984c2.1-0.361,4.204-0.572,6.459-0.788c1.657-0.047,3.313-0.094,4.966-0.292
		c1.506-0.043,3.163-0.091,4.669-0.133c4.518-0.128,9.342-0.116,13.886,0.659c7.251,0.547,14.833,2.14,21.684,4.507
		c1.975,0.546,14.927,5.453,14.97,6.959c0.004,0.15,0.013,0.452,0.025,0.903c0.034,1.205,0.069,2.41,0.103,3.615
		s0.069,2.41,0.103,3.615c0.009,0.301,0.017,0.603,0.021,0.753c0.013,0.452-0.133,0.606-0.593,0.318
		c-13.598-6.396-24.837-9.392-39.8-10.774c-1.356,0.039-2.565-0.077-3.925-0.189c-0.151,0.004-0.151,0.004-0.301,0.008
		c-3.92-0.039-7.991-0.073-12.053,0.193c-2.862,0.081-5.719,0.313-8.421,0.692c-1.05,0.181-1.954,0.206-2.853,0.383
		c-3.154,0.392-6.154,0.929-9.145,1.768c-9.889,2.091-18.521,5.954-27.279,10.726c-0.297,0.159-0.443,0.314-0.594,0.318
		C84.302,305.884,84.151,305.889,84.147,305.738z"/>
</g>
<circle opacity="0.8" fill="#FFFFFF" cx="117.347" cy="221.974" r="8.93"/>
<circle opacity="0.8" fill="#FFFFFF" cx="150.211" cy="221.974" r="8.93"/>
</svg>
